<svg id="Layer_1" enable-background="new 0 0 48 48" viewBox="0 0 48 48" xmlns="http://www.w3.org/2000/svg">
<g><path fill="#10ac84" d="m24.43 28.67c-.64-.37-1.4-.44-2.14-.37.63-1.16.68-2.38.49-3.43h3.37v-1.5h-3.83c-.07-.14-.14-.28-.21-.41-.27-.44-.41-.95-.41-1.47 0-1.57 1.28-2.84 2.84-2.84.92 0 1.79.45 2.32 1.2l1.22-.87c-.81-1.15-2.14-1.83-3.54-1.83-2.39 0-4.34 1.95-4.34 4.34 0 .66.16 1.3.44 1.88h-1.15v1.5h1.78c.29 1.17.28 2.99-1.92 4.35-.34.21-.46.66-.26 1.01s.64.48 1 .3c.63-.32 2.63-1.11 3.61-.55.85.49 1.73.88 2.63.88.91 0 1.84-.4 2.77-1.52l-1.15-.96c-1.12 1.33-1.99 1.17-3.52.29z"/><path fill="#10ac84" d="m45.46 10.2h-42.92c-1.13 0-2.04.91-2.04 2.04v23.52c0 1.13.91 2.04 2.04 2.04h42.92c1.13 0 2.04-.91 2.04-2.04v-23.52c0-1.13-.91-2.04-2.04-2.04zm-1.27 19.58c-2.74 0-4.95 2.22-4.95 4.95h-30.47c0-2.74-2.22-4.95-4.95-4.95v-11.56c2.74 0 4.95-2.22 4.95-4.95h30.47c0 2.74 2.22 4.95 4.95 4.95z"/><path fill="#10ac84" d="m10.6 21.75c-1.24 0-2.25 1.01-2.25 2.25s1.01 2.25 2.25 2.25 2.25-1.01 2.25-2.25-1.01-2.25-2.25-2.25z"/><path fill="#10ac84" d="m37.4 21.75c-1.24 0-2.25 1.01-2.25 2.25s1.01 2.25 2.25 2.25 2.25-1.01 2.25-2.25-1.01-2.25-2.25-2.25z"/></g></svg>